<svg xmlns="http://www.w3.org/2000/svg" viewBox="0 0 64 64" width="64" height="64" role="img" aria-label="featured rank">
  <defs>
    <linearGradient id="body" x1="0" y1="0" x2="0" y2="1">
      <stop offset="0" stop-color="#ffd54a"/>
      <stop offset="1" stop-color="#c79200"/>
    </linearGradient>
    
  </defs>
  <path d="M32 4 L56 14 L56 34 Q56 52 32 60 Q8 52 8 34 L8 14 Z" fill="#9a6f00"/>
  <path d="M32 4 L56 14 L56 34 Q56 52 32 60 Q8 52 8 34 L8 14 Z" fill="url(#body)" transform="translate(32 32) scale(0.88) translate(-32 -32)"/>
  <path d="M32 7 L52 15.5 Q52 17 32 24 Q12 17 12 15.5 Z" fill="#ffffff" opacity="0.16"/>
  <polygon points="32.0,19.0 36.0,28.5 46.3,29.4 38.4,36.1 40.8,46.1 32.0,40.8 23.2,46.1 25.6,36.1 17.7,29.4 28.0,28.5" fill="#ffffff"/>
</svg>
