<svg xmlns="http://www.w3.org/2000/svg" viewBox="0 0 64 64" width="64" height="64" role="img" aria-label="legend rank">
  <defs>
    <linearGradient id="body" x1="0" y1="0" x2="0" y2="1">
      <stop offset="0" stop-color="#ff9d4d"/>
      <stop offset="1" stop-color="#d2641e"/>
    </linearGradient>
    
  </defs>
  <path d="M32 4 L56 14 L56 34 Q56 52 32 60 Q8 52 8 34 L8 14 Z" fill="#a44b12"/>
  <path d="M32 4 L56 14 L56 34 Q56 52 32 60 Q8 52 8 34 L8 14 Z" fill="url(#body)" transform="translate(32 32) scale(0.88) translate(-32 -32)"/>
  <path d="M32 7 L52 15.5 Q52 17 32 24 Q12 17 12 15.5 Z" fill="#ffffff" opacity="0.16"/>
  <path d="M18 37 L18 23 L26 30 L32 19 L38 30 L46 23 L46 37 Z" fill="#ffffff"/><rect x="18" y="39" width="28" height="5" rx="1.5" fill="#ffffff"/>
</svg>
