<svg xmlns="http://www.w3.org/2000/svg" viewBox="0 0 64 64" width="64" height="64" role="img" aria-label="ryval rank">
  <defs>
    <linearGradient id="body" x1="0" y1="0" x2="0" y2="1">
      <stop offset="0" stop-color="#6699ff"/>
      <stop offset="1" stop-color="#2a4bd0"/>
    </linearGradient>
    <filter id="g" x="-20%" y="-20%" width="140%" height="140%"><feGaussianBlur stdDeviation="1.4"/></filter>
  </defs>
  <path d="M32 4 L56 14 L56 34 Q56 52 32 60 Q8 52 8 34 L8 14 Z" fill="#1d3596"/>
  <path d="M32 4 L56 14 L56 34 Q56 52 32 60 Q8 52 8 34 L8 14 Z" fill="url(#body)" transform="translate(32 32) scale(0.88) translate(-32 -32)"/>
  <path d="M32 7 L52 15.5 Q52 17 32 24 Q12 17 12 15.5 Z" fill="#ffffff" opacity="0.16"/>
  <text x="32" y="42" text-anchor="middle" font-family="Georgia, 'Times New Roman', serif" font-size="26" font-weight="700" fill="#ffffff">Ry</text>
</svg>
